<?xml version="1.0" encoding="UTF-8"?>
<svg id="Layer_2" data-name="Layer 2" xmlns="http://www.w3.org/2000/svg" viewBox="0 0 1078.89 1075.99">
  <defs>
    <style>
      .cls-1 {
        fill: #E4E7EB;
      }
    </style>
  </defs>
  <path class="cls-1" d="M1078.89,513.04v54.03l-13.01,90.07c-48.24,215.11-230.51,382.74-449.14,413.92l-44.8,4.29c-26.76-1.51-55.66,2.04-82.15,0C233.58,1055.59,15.35,831.91.92,576.05-19.52,213.63,304.46-67.24,661.76,14.13c232.55,52.96,404.05,261.8,417.14,498.9ZM222.15,906.41c245.53,209.79,624.68,125.5,758.92-165.9C1164.91,341.43,766.82-72.33,359.63,87.87,21.93,220.73-54.34,670.18,222.15,906.41Z"/>
  <path class="cls-1" d="M434.87,304.09c-50.2,54.11-104.41,109.29-151.39,165.98-2.84,3.42-7.41,8.55-8.05,12.95l244.41-230.12,18.08,280.14,20.03-278.13,242.41,226.12c-1.59-5.39-7.28-11.72-10.97-16.04-67.55-78.85-141.84-152.31-210.55-230.02l2.43-3.78,283.83-7.88c26.11,23.51,48.23,53.92,65.88,84.29,138.52,238.46,37.77,539.07-213.39,648.04-9.42,4.09-63.33,25.23-69.23,21.42-8.13-25.43-13.3-52.21-16.26-78.81-6.79-60.89-11.07-140.29,18.98-195.14,18.71-34.15,54.62-61.94,68.69-97.49,11.97-30.26,7.28-84.56-.96-116.15-14.11-54.07-50.84-93.51-95.98-124.32-6.68-1.03-5.62,15.29-3.73,19.79,1.25,2.98,30.84,26.03,37.08,33.01,14.01,15.69,26.36,36.14,29.98,57.08-13.3-18.66-27.59-36.98-45.12-51.97-2.36-2.02-19.28-15.89-20.97-14.05.05,5.09-1.71,9.86-2.1,14.92-3.03,39.72,5.34,90.08-.09,127.98-3.82,26.61-37.94,56.04-64.97,57.18l-193.33,2.03c-4.29,3.79,52.31,71.3,56.91,78.21,20.28,30.51,29.41,60.07,31.34,96.77,3.27,62.36-2.06,130.61-20.05,190.34-3.5,2.4-20.57-3.13-25.65-4.62C95.17,882.25-17.79,492.71,187.3,247.96c5.57-6.64,19.55-24.2,26.88-25.18l282.34,8.4,2.43,3.78c-21.12,23.01-42.74,46.12-64.09,69.13ZM419.16,243.42c-8.31-7.8-57.46,6.61-68.68,11.42-9.39,4.02-33.18,19.09-24,30.03,24.87-14.43,49.31-30.38,79.17-31.94-14.61,13.63-35.33,19.17-48.05,35.06l12.85,13.08c4.3,7.54,8.59,14.58,5.85,23.53-1.38,4.52-9.74,10.58-3.56,12.24,15.08,4.07,31.33-19.49,36.62-31.18,5.62-12.4,20.45-52.22,9.79-62.22ZM752.28,282.9c.13-2.84.32-5.69-.5-8.49-5.58-19.11-72.96-38.31-90.27-33.14-11.65,3.48-6.15,23.43-4.4,31.64,3.65,17.17,13.76,45.29,28.06,56.02,5.1,3.82,17.81,12,22.99,5.02-19.73-22.97,2.43-30.6,9.89-49.67l-45.9-31.37c18.4.03,37.27,7.26,53.43,15.65,4.4,2.29,23.59,17.61,26.7,14.33ZM335.52,302.95c-11.79-2.22-18.67,5.23-27,12.04-27.82,22.74-59.46,53.53-85.25,78.95-27.44,27.05-76.37,71.82-78.13,112.18-.99,22.69,24.06,71.9,39.27,88.79,6.24,6.92,14.94,9.88,11.96-1.86-2.68-10.56-20.26-32.1-26.2-43.94-22.68-45.2-9.83-70.18,21.03-105.15,41.45-46.98,92.49-85.51,136.38-129.94,1.4-1.41,8.49-10.66,7.94-11.07ZM878.53,599.06c4.77.83,6.66,3.66,10.96.01,8.53-7.24,32.34-49.86,36.65-61.5,20.95-56.68-27.52-99.92-64.59-136.65-26.45-26.21-59.81-58.4-88.27-81.94-8.37-6.92-17.69-17.5-28.99-16.05-3.36,3,14.42,19.57,16.97,22.05,44.69,43.44,103.65,88.15,140.14,138.19,40.76,55.89,1.05,86.01-22.87,135.88ZM205.85,588.48c4.82,4.12,13.16,2.09,17.22-2.34-12.34-32.3-51.03-61.62-32.23-98.52,10.61-20.82,60.38-66.3,79.5-84.69,22.25-21.4,60.35-49.24,78.24-71.93,3.63-4.6,10.61-16.83,1.71-19.92-5.2-1.8-16.26,8.89-20.82,12.83-41.42,35.84-103.52,91.46-137.25,133.08-28.12,34.69-32.47,50.81-11.34,91.42,3.32,6.37,21.23,36.9,24.96,40.08ZM819.25,416.15c19.08,18.64,68.05,61.04,72.81,86.35,4.92,26.15-27.35,61.32-39.52,83.59,14.15,10.18,16.44,7.14,24.8-5.19,20.26-29.87,42.38-61.67,25.96-97.62-15.33-33.57-129.51-137.9-163.02-165.37-2.17-1.78-8.57-7.19-10.79-6.81-3.67,2.2-8.12,8.12-7,12.42.61,2.35,20.97,21.84,24.72,25.48,23.49,22.81,48.57,44.24,72.02,67.15ZM349.54,577.07h118.22c-14.25-39.72-6.45-85.07-7.93-127.15-.46-13.01-3.89-27.23-2.1-40.93-3.2-3.49-38.57,28.62-42.12,32.95l-25.98,35.06c4.96-23.56,20.19-49.04,37.06-66.01,5.37-5.41,27.74-20.37,29.97-24.09,3-5.01,2.75-16.62.06-21.97-7.78-.18-50.13,39.03-57.14,46.99-40.98,46.52-51.19,104.46-50.04,165.14ZM293.43,647.1c3.09-2.91-19.55-30.31-23-34.04-16.67-17.98-23.86-21.3-48.75-14.62-16.36,4.4-45.34,19.03-38.95,40.03,1.8,5.9,30.53,50.63,33.57,50.62,28.71-23.27-2.5-31.71-5.01-55.98,17.87-3.53,22.68,17.24,35.04,25.45,14.2-8.14,30.74-12.03,47.11-11.47ZM868.45,633.19c4.06,5.69-19.45,29.25-20.04,35.01-.73,7.09,8.07,16.52,13.09,20.9,9.69-16.63,36.13-42.92,32.95-62.87-3.28-20.6-51.59-36.88-69.51-29.63-6.95,2.81-42.54,44.39-38.59,48.5,11.67-2.85,37.55,12.12,45.15,11.98,7.55-.14,17.82-25.12,29.97-25.75,1.08-.06,6.77,1.57,6.98,1.86ZM678.18,947.27c5,3.38,16.38-14.98,19.64-19.38,49.3-66.54,93.92-139.05,141.09-207.27,4.52-9.34-1.96-20.1-6.87-28.09-14.84-24.19-38.58-28.45-65.33-29.01-22.23,29.87-47.06,58.01-69.31,87.85-10.61,14.22-28.55,34.57-32.72,51.37-2.97,11.95-8.07,65.26-2.66,73.34l4.07,1.14,143.3-186.05,11.05,12.94-148.82,213.8,6.56,29.36ZM415.65,881.24c3.89-30.94,2.9-66.94-9.14-95.91l-91.89-116.35c-36.6-10.16-74.06,11.78-78.28,50.04l153.34,223.19,7.92,7.06c3.6-9.92,11.37-20.5,6.48-31.46-40.32-63.52-87.79-122.44-129.12-185.21-9.05-13.75-27.84-30.68-6.54-41.03l147.22,189.67Z"/>
  <path class="cls-1" d="M503.83,198.85l-274.47,5.02c53.16-47.41,116.25-83.95,185.25-103.09,10.15,1.05,77.69,84.79,89.22,98.06Z"/>
  <path class="cls-1" d="M846.46,204.85l-139.17-4.06c-42.66-.53-85.94,1.18-128.35-1.92-2.98-.22-5.8,1.55-4.96-2.98,29.01-32.06,55.77-67.72,89.05-94.98,68.05,20.22,132.47,54.77,183.43,103.94Z"/>
  <path class="cls-1" d="M507.84,796.19c2.28-20.43,17.26-34.36,38.61-30.55,28.26,5.04,20.63,41.94,21.52,62.55.17,3.86,1.93,7.68,2.07,11.94,1.58,50.28-1.35,100.88-.08,151.16h-62.12v-195.11ZM561.94,817.18c-4.34-54.86-44.95-50.74-46.06,2.02,8.32-6.59,9.73-24.08,23.04-24.21,11.82-.12,18.42,26.83,23.02,22.19Z"/>
  <path class="cls-1" d="M529.89,84.8l-8.05,86.05-86.12-73.06c-.89-4.21,1.7-2.72,4.39-3.53,10.46-3.13,86.09-13.15,89.78-9.46Z"/>
  <path class="cls-1" d="M642.08,94.84l-88.14,76.02-6.03-86.04c31.6-.79,63.32,3.34,94.17,10.02Z"/>
  <path class="cls-1" d="M489.8,641.11c15.33,10.3,16.46,31.67,12.03,48.01,28.31-1.87,20.56-31.53,14.03-50,11.12,2.32,20.14,23.29,20.05,33.04-.06,5.98-4.5,10.88-4.02,16.97,28.95-1.89,20.9-30.88,14.03-50.01,3.06-3.38,18.02,17.05,18.02,19v31.02c27.58-4.18,19.26-31.26,12.03-50.01h14.02s0,57.02,0,57.02l-3.01,3h-97.18v-58.03Z"/>
  <path class="cls-1" d="M475.78,711.15h123.23l4.99-20,4.03,36.01h-140.26l6.03-40.01c3.49-.47,1.88,4.53,1.98,6.97.23,5.66-.16,11.39,0,17.03Z"/>
</svg>